<svg xmlns="http://www.w3.org/2000/svg" xmlns:xlink="http://www.w3.org/1999/xlink" width="500" zoomAndPan="magnify" viewBox="0 0 375 374.999991" height="500" preserveAspectRatio="xMidYMid meet" version="1.0"><defs><g/><linearGradient x1="0" gradientTransform="matrix(0.75, 0, 0, 0.75, 0.0000045, 0)" y1="250" x2="499.999979" gradientUnits="userSpaceOnUse" y2="250" id="dffbf2fbad"><stop stop-opacity="1" stop-color="rgb(80.39856%, 100%, 84.698486%)" offset="0"/><stop stop-opacity="1" stop-color="rgb(80.311584%, 99.891663%, 84.757996%)" offset="0.0078125"/><stop stop-opacity="1" stop-color="rgb(80.136108%, 99.676514%, 84.87854%)" offset="0.015625"/><stop stop-opacity="1" stop-color="rgb(79.960632%, 99.461365%, 84.997559%)" offset="0.0234375"/><stop stop-opacity="1" stop-color="rgb(79.786682%, 99.246216%, 85.116577%)" offset="0.03125"/><stop stop-opacity="1" stop-color="rgb(79.611206%, 99.032593%, 85.237122%)" offset="0.0390625"/><stop stop-opacity="1" stop-color="rgb(79.43573%, 98.817444%, 85.35614%)" offset="0.046875"/><stop stop-opacity="1" stop-color="rgb(79.26178%, 98.602295%, 85.476685%)" offset="0.0546875"/><stop stop-opacity="1" stop-color="rgb(79.086304%, 98.387146%, 85.595703%)" offset="0.0625"/><stop stop-opacity="1" stop-color="rgb(78.910828%, 98.171997%, 85.714722%)" offset="0.0703125"/><stop stop-opacity="1" stop-color="rgb(78.736877%, 97.958374%, 85.835266%)" offset="0.078125"/><stop stop-opacity="1" stop-color="rgb(78.561401%, 97.743225%, 85.954285%)" offset="0.0859375"/><stop stop-opacity="1" stop-color="rgb(78.385925%, 97.528076%, 86.073303%)" offset="0.09375"/><stop stop-opacity="1" stop-color="rgb(78.211975%, 97.312927%, 86.193848%)" offset="0.101562"/><stop stop-opacity="1" stop-color="rgb(78.036499%, 97.097778%, 86.312866%)" offset="0.109375"/><stop stop-opacity="1" stop-color="rgb(77.861023%, 96.884155%, 86.431885%)" offset="0.117188"/><stop stop-opacity="1" stop-color="rgb(77.685547%, 96.669006%, 86.552429%)" offset="0.125"/><stop stop-opacity="1" stop-color="rgb(77.511597%, 96.453857%, 86.671448%)" offset="0.132812"/><stop stop-opacity="1" stop-color="rgb(77.336121%, 96.238708%, 86.790466%)" offset="0.140625"/><stop stop-opacity="1" stop-color="rgb(77.160645%, 96.02356%, 86.911011%)" offset="0.148437"/><stop stop-opacity="1" stop-color="rgb(76.986694%, 95.809937%, 87.030029%)" offset="0.15625"/><stop stop-opacity="1" stop-color="rgb(76.811218%, 95.594788%, 87.149048%)" offset="0.164062"/><stop stop-opacity="1" stop-color="rgb(76.635742%, 95.379639%, 87.269592%)" offset="0.171875"/><stop stop-opacity="1" stop-color="rgb(76.461792%, 95.16449%, 87.388611%)" offset="0.179687"/><stop stop-opacity="1" stop-color="rgb(76.286316%, 94.949341%, 87.507629%)" offset="0.1875"/><stop stop-opacity="1" stop-color="rgb(76.11084%, 94.735718%, 87.628174%)" offset="0.195312"/><stop stop-opacity="1" stop-color="rgb(75.93689%, 94.520569%, 87.747192%)" offset="0.203125"/><stop stop-opacity="1" stop-color="rgb(75.761414%, 94.30542%, 87.866211%)" offset="0.210938"/><stop stop-opacity="1" stop-color="rgb(75.585938%, 94.090271%, 87.986755%)" offset="0.21875"/><stop stop-opacity="1" stop-color="rgb(75.410461%, 93.875122%, 88.105774%)" offset="0.226562"/><stop stop-opacity="1" stop-color="rgb(75.236511%, 93.661499%, 88.224792%)" offset="0.234375"/><stop stop-opacity="1" stop-color="rgb(75.061035%, 93.44635%, 88.345337%)" offset="0.242188"/><stop stop-opacity="1" stop-color="rgb(74.885559%, 93.231201%, 88.464355%)" offset="0.25"/><stop stop-opacity="1" stop-color="rgb(74.711609%, 93.016052%, 88.583374%)" offset="0.257812"/><stop stop-opacity="1" stop-color="rgb(74.536133%, 92.800903%, 88.703918%)" offset="0.265625"/><stop stop-opacity="1" stop-color="rgb(74.360657%, 92.58728%, 88.822937%)" offset="0.273437"/><stop stop-opacity="1" stop-color="rgb(74.186707%, 92.372131%, 88.941956%)" offset="0.28125"/><stop stop-opacity="1" stop-color="rgb(74.01123%, 92.156982%, 89.0625%)" offset="0.289062"/><stop stop-opacity="1" stop-color="rgb(73.835754%, 91.941833%, 89.181519%)" offset="0.296875"/><stop stop-opacity="1" stop-color="rgb(73.661804%, 91.726685%, 89.300537%)" offset="0.304687"/><stop stop-opacity="1" stop-color="rgb(73.486328%, 91.513062%, 89.421082%)" offset="0.3125"/><stop stop-opacity="1" stop-color="rgb(73.310852%, 91.297913%, 89.5401%)" offset="0.320312"/><stop stop-opacity="1" stop-color="rgb(73.136902%, 91.082764%, 89.659119%)" offset="0.328125"/><stop stop-opacity="1" stop-color="rgb(72.961426%, 90.867615%, 89.779663%)" offset="0.335937"/><stop stop-opacity="1" stop-color="rgb(72.78595%, 90.652466%, 89.898682%)" offset="0.34375"/><stop stop-opacity="1" stop-color="rgb(72.610474%, 90.438843%, 90.0177%)" offset="0.351562"/><stop stop-opacity="1" stop-color="rgb(72.436523%, 90.223694%, 90.138245%)" offset="0.359375"/><stop stop-opacity="1" stop-color="rgb(72.261047%, 90.008545%, 90.257263%)" offset="0.367187"/><stop stop-opacity="1" stop-color="rgb(72.085571%, 89.793396%, 90.376282%)" offset="0.375"/><stop stop-opacity="1" stop-color="rgb(71.911621%, 89.578247%, 90.496826%)" offset="0.382812"/><stop stop-opacity="1" stop-color="rgb(71.736145%, 89.364624%, 90.615845%)" offset="0.390625"/><stop stop-opacity="1" stop-color="rgb(71.560669%, 89.149475%, 90.734863%)" offset="0.398438"/><stop stop-opacity="1" stop-color="rgb(71.386719%, 88.934326%, 90.855408%)" offset="0.40625"/><stop stop-opacity="1" stop-color="rgb(71.211243%, 88.719177%, 90.974426%)" offset="0.414062"/><stop stop-opacity="1" stop-color="rgb(71.035767%, 88.504028%, 91.093445%)" offset="0.421875"/><stop stop-opacity="1" stop-color="rgb(70.861816%, 88.290405%, 91.213989%)" offset="0.429688"/><stop stop-opacity="1" stop-color="rgb(70.68634%, 88.075256%, 91.333008%)" offset="0.4375"/><stop stop-opacity="1" stop-color="rgb(70.510864%, 87.860107%, 91.452026%)" offset="0.445312"/><stop stop-opacity="1" stop-color="rgb(70.336914%, 87.644958%, 91.572571%)" offset="0.453125"/><stop stop-opacity="1" stop-color="rgb(70.161438%, 87.42981%, 91.691589%)" offset="0.460938"/><stop stop-opacity="1" stop-color="rgb(69.985962%, 87.216187%, 91.810608%)" offset="0.46875"/><stop stop-opacity="1" stop-color="rgb(69.810486%, 87.001038%, 91.931152%)" offset="0.476562"/><stop stop-opacity="1" stop-color="rgb(69.636536%, 86.785889%, 92.050171%)" offset="0.484375"/><stop stop-opacity="1" stop-color="rgb(69.46106%, 86.57074%, 92.169189%)" offset="0.492188"/><stop stop-opacity="1" stop-color="rgb(69.285583%, 86.355591%, 92.289734%)" offset="0.5"/><stop stop-opacity="1" stop-color="rgb(69.111633%, 86.141968%, 92.408752%)" offset="0.507812"/><stop stop-opacity="1" stop-color="rgb(68.936157%, 85.926819%, 92.527771%)" offset="0.515625"/><stop stop-opacity="1" stop-color="rgb(68.760681%, 85.71167%, 92.648315%)" offset="0.523437"/><stop stop-opacity="1" stop-color="rgb(68.586731%, 85.496521%, 92.767334%)" offset="0.53125"/><stop stop-opacity="1" stop-color="rgb(68.411255%, 85.281372%, 92.886353%)" offset="0.539062"/><stop stop-opacity="1" stop-color="rgb(68.235779%, 85.067749%, 93.006897%)" offset="0.546875"/><stop stop-opacity="1" stop-color="rgb(68.061829%, 84.8526%, 93.125916%)" offset="0.554687"/><stop stop-opacity="1" stop-color="rgb(67.886353%, 84.637451%, 93.244934%)" offset="0.5625"/><stop stop-opacity="1" stop-color="rgb(67.710876%, 84.422302%, 93.365479%)" offset="0.570312"/><stop stop-opacity="1" stop-color="rgb(67.536926%, 84.207153%, 93.484497%)" offset="0.578125"/><stop stop-opacity="1" stop-color="rgb(67.36145%, 83.99353%, 93.603516%)" offset="0.585937"/><stop stop-opacity="1" stop-color="rgb(67.185974%, 83.778381%, 93.72406%)" offset="0.59375"/><stop stop-opacity="1" stop-color="rgb(67.010498%, 83.563232%, 93.843079%)" offset="0.601562"/><stop stop-opacity="1" stop-color="rgb(66.836548%, 83.348083%, 93.962097%)" offset="0.609375"/><stop stop-opacity="1" stop-color="rgb(66.661072%, 83.132935%, 94.082642%)" offset="0.617187"/><stop stop-opacity="1" stop-color="rgb(66.485596%, 82.919312%, 94.20166%)" offset="0.625"/><stop stop-opacity="1" stop-color="rgb(66.311646%, 82.704163%, 94.320679%)" offset="0.632812"/><stop stop-opacity="1" stop-color="rgb(66.136169%, 82.489014%, 94.441223%)" offset="0.640625"/><stop stop-opacity="1" stop-color="rgb(65.960693%, 82.273865%, 94.560242%)" offset="0.648437"/><stop stop-opacity="1" stop-color="rgb(65.786743%, 82.058716%, 94.67926%)" offset="0.65625"/><stop stop-opacity="1" stop-color="rgb(65.611267%, 81.845093%, 94.799805%)" offset="0.664062"/><stop stop-opacity="1" stop-color="rgb(65.435791%, 81.629944%, 94.918823%)" offset="0.671875"/><stop stop-opacity="1" stop-color="rgb(65.261841%, 81.414795%, 95.037842%)" offset="0.679687"/><stop stop-opacity="1" stop-color="rgb(65.086365%, 81.199646%, 95.158386%)" offset="0.6875"/><stop stop-opacity="1" stop-color="rgb(64.910889%, 80.984497%, 95.277405%)" offset="0.695312"/><stop stop-opacity="1" stop-color="rgb(64.736938%, 80.770874%, 95.396423%)" offset="0.703125"/><stop stop-opacity="1" stop-color="rgb(64.561462%, 80.555725%, 95.516968%)" offset="0.710937"/><stop stop-opacity="1" stop-color="rgb(64.385986%, 80.340576%, 95.635986%)" offset="0.71875"/><stop stop-opacity="1" stop-color="rgb(64.21051%, 80.125427%, 95.755005%)" offset="0.726562"/><stop stop-opacity="1" stop-color="rgb(64.03656%, 79.910278%, 95.875549%)" offset="0.734375"/><stop stop-opacity="1" stop-color="rgb(63.861084%, 79.696655%, 95.994568%)" offset="0.742187"/><stop stop-opacity="1" stop-color="rgb(63.685608%, 79.481506%, 96.113586%)" offset="0.75"/><stop stop-opacity="1" stop-color="rgb(63.511658%, 79.266357%, 96.234131%)" offset="0.757812"/><stop stop-opacity="1" stop-color="rgb(63.336182%, 79.051208%, 96.353149%)" offset="0.765625"/><stop stop-opacity="1" stop-color="rgb(63.160706%, 78.83606%, 96.472168%)" offset="0.773438"/><stop stop-opacity="1" stop-color="rgb(62.986755%, 78.622437%, 96.592712%)" offset="0.78125"/><stop stop-opacity="1" stop-color="rgb(62.811279%, 78.407288%, 96.711731%)" offset="0.789062"/><stop stop-opacity="1" stop-color="rgb(62.635803%, 78.192139%, 96.83075%)" offset="0.796875"/><stop stop-opacity="1" stop-color="rgb(62.461853%, 77.97699%, 96.951294%)" offset="0.804688"/><stop stop-opacity="1" stop-color="rgb(62.286377%, 77.761841%, 97.070312%)" offset="0.8125"/><stop stop-opacity="1" stop-color="rgb(62.110901%, 77.548218%, 97.189331%)" offset="0.820312"/><stop stop-opacity="1" stop-color="rgb(61.936951%, 77.333069%, 97.309875%)" offset="0.828125"/><stop stop-opacity="1" stop-color="rgb(61.761475%, 77.11792%, 97.428894%)" offset="0.835938"/><stop stop-opacity="1" stop-color="rgb(61.585999%, 76.902771%, 97.547913%)" offset="0.84375"/><stop stop-opacity="1" stop-color="rgb(61.410522%, 76.687622%, 97.668457%)" offset="0.851562"/><stop stop-opacity="1" stop-color="rgb(61.236572%, 76.473999%, 97.787476%)" offset="0.859375"/><stop stop-opacity="1" stop-color="rgb(61.061096%, 76.25885%, 97.906494%)" offset="0.867188"/><stop stop-opacity="1" stop-color="rgb(60.88562%, 76.043701%, 98.027039%)" offset="0.875"/><stop stop-opacity="1" stop-color="rgb(60.71167%, 75.828552%, 98.146057%)" offset="0.882812"/><stop stop-opacity="1" stop-color="rgb(60.536194%, 75.613403%, 98.265076%)" offset="0.890625"/><stop stop-opacity="1" stop-color="rgb(60.360718%, 75.39978%, 98.38562%)" offset="0.898438"/><stop stop-opacity="1" stop-color="rgb(60.186768%, 75.184631%, 98.504639%)" offset="0.90625"/><stop stop-opacity="1" stop-color="rgb(60.011292%, 74.969482%, 98.623657%)" offset="0.914062"/><stop stop-opacity="1" stop-color="rgb(59.835815%, 74.754333%, 98.744202%)" offset="0.921875"/><stop stop-opacity="1" stop-color="rgb(59.661865%, 74.539185%, 98.86322%)" offset="0.929688"/><stop stop-opacity="1" stop-color="rgb(59.486389%, 74.325562%, 98.982239%)" offset="0.9375"/><stop stop-opacity="1" stop-color="rgb(59.310913%, 74.110413%, 99.102783%)" offset="0.945312"/><stop stop-opacity="1" stop-color="rgb(59.136963%, 73.895264%, 99.221802%)" offset="0.953125"/><stop stop-opacity="1" stop-color="rgb(58.961487%, 73.680115%, 99.34082%)" offset="0.960938"/><stop stop-opacity="1" stop-color="rgb(58.786011%, 73.464966%, 99.461365%)" offset="0.96875"/><stop stop-opacity="1" stop-color="rgb(58.610535%, 73.251343%, 99.580383%)" offset="0.976562"/><stop stop-opacity="1" stop-color="rgb(58.436584%, 73.036194%, 99.699402%)" offset="0.984375"/><stop stop-opacity="1" stop-color="rgb(58.261108%, 72.821045%, 99.819946%)" offset="0.992188"/><stop stop-opacity="1" stop-color="rgb(58.085632%, 72.605896%, 99.938965%)" offset="1"/></linearGradient><clipPath id="3a45eb4b3f"><path d="M 11 71 L 174 71 L 174 280 L 11 280 Z M 11 71 " clip-rule="nonzero"/></clipPath><clipPath id="bd645f0ebe"><path d="M 0 88.722656 L 159.617188 64.839844 L 189.855469 266.917969 L 30.234375 290.800781 Z M 0 88.722656 " clip-rule="nonzero"/></clipPath><clipPath id="c9d51fda6c"><path d="M 0 88.722656 L 159.617188 64.839844 L 189.855469 266.917969 L 30.234375 290.800781 Z M 0 88.722656 " clip-rule="nonzero"/></clipPath><clipPath id="6209fbb2af"><path d="M 56 147 L 131 147 L 131 254 L 56 254 Z M 56 147 " clip-rule="nonzero"/></clipPath><clipPath id="7817bf760a"><path d="M 0 88.722656 L 159.617188 64.839844 L 189.855469 266.917969 L 30.234375 290.800781 Z M 0 88.722656 " clip-rule="nonzero"/></clipPath><clipPath id="4f905346b4"><path d="M 0 88.722656 L 159.617188 64.839844 L 189.855469 266.917969 L 30.234375 290.800781 Z M 0 88.722656 " clip-rule="nonzero"/></clipPath><clipPath id="50d3e28e75"><path d="M 92.136719 231.53125 L 115.644531 231.53125 L 115.644531 255.039062 L 92.136719 255.039062 Z M 92.136719 231.53125 " clip-rule="nonzero"/></clipPath><clipPath id="49dd9a831f"><path d="M 103.890625 231.53125 C 97.398438 231.53125 92.136719 236.792969 92.136719 243.285156 C 92.136719 249.777344 97.398438 255.039062 103.890625 255.039062 C 110.382812 255.039062 115.644531 249.777344 115.644531 243.285156 C 115.644531 236.792969 110.382812 231.53125 103.890625 231.53125 Z M 103.890625 231.53125 " clip-rule="nonzero"/></clipPath><clipPath id="c9ea2e8ef5"><path d="M 101 143 L 134 143 L 134 177 L 101 177 Z M 101 143 " clip-rule="nonzero"/></clipPath><clipPath id="2df2a9031c"><path d="M 99.203125 146.078125 L 131.609375 141.816406 L 135.867188 174.21875 L 103.464844 178.480469 Z M 99.203125 146.078125 " clip-rule="nonzero"/></clipPath><clipPath id="e7037300fa"><path d="M 115.40625 143.945312 C 106.457031 145.121094 100.160156 153.332031 101.335938 162.277344 C 102.511719 171.226562 110.71875 177.527344 119.667969 176.351562 C 128.617188 175.171875 134.914062 166.964844 133.738281 158.019531 C 132.5625 149.070312 124.355469 142.769531 115.40625 143.945312 Z M 115.40625 143.945312 " clip-rule="nonzero"/></clipPath><clipPath id="1f13721ee4"><path d="M 55 153 L 85 153 L 85 183 L 55 183 Z M 55 153 " clip-rule="nonzero"/></clipPath><clipPath id="04d1b49903"><path d="M 53.402344 155.1875 L 82.460938 151.367188 L 86.28125 180.425781 L 57.222656 184.246094 Z M 53.402344 155.1875 " clip-rule="nonzero"/></clipPath><clipPath id="1f1162b130"><path d="M 67.929688 153.277344 C 59.90625 154.332031 54.257812 161.691406 55.3125 169.714844 C 56.367188 177.742188 63.726562 183.390625 71.753906 182.335938 C 79.777344 181.28125 85.425781 173.917969 84.371094 165.894531 C 83.316406 157.871094 75.957031 152.222656 67.929688 153.277344 Z M 67.929688 153.277344 " clip-rule="nonzero"/></clipPath><clipPath id="2e3214cc4f"><path d="M 54 152 L 88 152 L 88 173 L 54 173 Z M 54 152 " clip-rule="nonzero"/></clipPath><clipPath id="163bc801ea"><path d="M 54.402344 172.550781 L 52.113281 154.21875 L 86.082031 149.972656 L 88.375 168.304688 Z M 54.402344 172.550781 " clip-rule="nonzero"/></clipPath><clipPath id="dea0f56a8f"><path d="M 54.402344 172.550781 L 52.113281 154.21875 L 86.082031 149.972656 L 88.375 168.304688 Z M 54.402344 172.550781 " clip-rule="nonzero"/></clipPath><clipPath id="478a4b9ddd"><path d="M 54.386719 172.425781 L 52.121094 154.273438 L 85.847656 150.058594 L 88.113281 168.210938 Z M 54.386719 172.425781 " clip-rule="nonzero"/></clipPath><clipPath id="d6c8c6d83c"><path d="M 98 146 L 132 146 L 132 167 L 98 167 Z M 98 146 " clip-rule="nonzero"/></clipPath><clipPath id="556b5f7bce"><path d="M 98.683594 166.957031 L 96.390625 148.625 L 129.824219 144.445312 L 132.113281 162.78125 Z M 98.683594 166.957031 " clip-rule="nonzero"/></clipPath><clipPath id="6420f1fb02"><path d="M 98.683594 166.957031 L 96.390625 148.625 L 129.824219 144.445312 L 132.113281 162.78125 Z M 98.683594 166.957031 " clip-rule="nonzero"/></clipPath><clipPath id="27e3c80c5f"><path d="M 98.667969 166.832031 L 96.4375 148.976562 L 129.613281 144.828125 L 131.847656 162.6875 Z M 98.667969 166.832031 " clip-rule="nonzero"/></clipPath><clipPath id="9587a04d02"><path d="M 172.628906 166.675781 L 371.292969 166.675781 L 371.292969 252.339844 L 172.628906 252.339844 Z M 172.628906 166.675781 " clip-rule="nonzero"/></clipPath><clipPath id="7862b35e4a"><path d="M 215.566406 166.675781 L 328.382812 166.675781 C 352.097656 166.675781 371.324219 185.898438 371.324219 209.613281 C 371.324219 233.328125 352.097656 252.550781 328.382812 252.550781 L 215.566406 252.550781 C 191.851562 252.550781 172.628906 233.328125 172.628906 209.613281 C 172.628906 185.898438 191.851562 166.675781 215.566406 166.675781 Z M 215.566406 166.675781 " clip-rule="nonzero"/></clipPath><clipPath id="9700a06b2d"><path d="M 187.003906 180.3125 L 274.449219 180.3125 L 274.449219 238.917969 L 187.003906 238.917969 Z M 187.003906 180.3125 " clip-rule="nonzero"/></clipPath><clipPath id="5e51b30e44"><path d="M 216.304688 180.3125 L 245.136719 180.3125 C 261.320312 180.3125 274.4375 193.433594 274.4375 209.613281 C 274.4375 225.796875 261.320312 238.917969 245.136719 238.917969 L 216.304688 238.917969 C 200.125 238.917969 187.003906 225.796875 187.003906 209.613281 C 187.003906 193.433594 200.125 180.3125 216.304688 180.3125 Z M 216.304688 180.3125 " clip-rule="nonzero"/></clipPath></defs><rect x="-37.5" width="450" fill="#ffffff" y="-37.499999" height="449.999989" fill-opacity="1"/><rect x="-37.5" fill="url(#dffbf2fbad)" width="450" y="-37.499999" height="449.999989"/><g clip-path="url(#3a45eb4b3f)"><g clip-path="url(#bd645f0ebe)"><g clip-path="url(#c9d51fda6c)"><path fill="#283389" d="M 159.460938 120.230469 C 155.148438 106.453125 147.519531 89.707031 139.074219 80.160156 C 135.277344 75.867188 131.15625 72.84375 126.808594 71.785156 C 121.695312 70.535156 116.761719 71.839844 112.296875 76.601562 C 108.082031 81.085938 104.292969 89.113281 101.261719 101.800781 L 66.234375 107.039062 C 59.625 95.796875 53.648438 89.234375 48.308594 86.175781 C 42.644531 82.929688 37.550781 83.125 33.023438 85.816406 C 29.179688 88.101562 26.121094 92.203125 23.746094 97.417969 C 18.429688 109.109375 16.039062 127.550781 15.980469 142.039062 C 12.300781 150.988281 10.90625 161 12.4375 171.214844 L 13.257812 176.703125 C 16.652344 199.386719 33.527344 216.886719 54.511719 222.273438 C 54.453125 226.636719 54.707031 230.855469 55.273438 234.898438 C 56.96875 247.042969 61.449219 257.464844 68.378906 265.195312 C 75.496094 273.132812 85.066406 278.164062 96.746094 279.28125 C 100.851562 279.671875 105.238281 279.570312 109.894531 278.917969 L 109.980469 278.90625 C 114.625 278.164062 118.847656 276.980469 122.65625 275.40625 C 133.496094 270.914062 141.179688 263.304688 145.660156 253.632812 C 150.019531 244.21875 151.257812 232.941406 149.324219 220.828125 C 148.675781 216.800781 147.691406 212.691406 146.359375 208.535156 C 152.546875 204.757812 157.894531 199.816406 162.148438 194.074219 C 170.609375 182.640625 174.726562 167.988281 172.46875 152.886719 L 171.648438 147.398438 C 170.097656 137.039062 165.742188 127.765625 159.460938 120.230469 Z M 120.359375 84.160156 C 121.742188 82.691406 123.03125 82.234375 124.207031 82.523438 C 126.160156 83 128.414062 84.816406 130.789062 87.5 C 134.9375 92.191406 138.910156 99.050781 142.292969 106.394531 C 140.078125 105.242188 137.777344 104.230469 135.414062 103.375 C 135.414062 103.375 135.417969 103.375 135.417969 103.375 C 129.414062 91.554688 123.003906 86.335938 118.824219 100.140625 C 116.921875 100.066406 115.003906 100.089844 113.070312 100.21875 C 115.316406 92.03125 117.78125 86.902344 120.359375 84.160156 Z M 33.820312 102.003906 C 35.304688 98.742188 36.925781 96.347656 38.65625 95.320312 C 39.699219 94.695312 41.070312 94.757812 42.8125 95.757812 C 46.078125 97.628906 49.941406 101.8125 54.488281 108.988281 C 52.972656 109.347656 51.476562 109.773438 50.015625 110.253906 C 42.183594 98.71875 37.636719 105.132812 35.328125 117.683594 C 32.828125 119.457031 30.488281 121.433594 28.332031 123.574219 C 29.414062 115.511719 31.210938 107.734375 33.820312 102.003906 Z M 135.625 248.992188 C 132.316406 256.140625 126.582031 261.789062 118.453125 265.15625 C 115.378906 266.425781 111.996094 267.378906 108.300781 267.976562 C 104.59375 268.488281 101.082031 268.570312 97.769531 268.25 C 89.007812 267.410156 81.871094 263.6875 76.617188 257.820312 C 71.171875 251.75 67.613281 243.328125 66.226562 233.347656 C 65.804688 230.351562 65.589844 227.203125 65.574219 223.933594 C 69.121094 224.101562 72.734375 223.929688 76.371094 223.386719 L 96.890625 220.316406 L 98.304688 229.765625 C 96.109375 230.828125 94.234375 232.410156 92.820312 234.320312 C 90.550781 237.390625 89.449219 241.332031 90.058594 245.402344 C 90.667969 249.476562 92.867188 252.921875 95.945312 255.191406 C 99.011719 257.460938 102.953125 258.566406 107.023438 257.957031 C 111.097656 257.347656 114.542969 255.144531 116.8125 252.070312 C 119.082031 249 120.1875 245.058594 119.578125 240.988281 C 118.96875 236.914062 116.761719 233.46875 113.691406 231.199219 C 111.777344 229.785156 109.523438 228.820312 107.113281 228.449219 L 105.699219 218.996094 L 125.777344 215.992188 C 129.414062 215.449219 132.917969 214.558594 136.265625 213.355469 C 137.210938 216.488281 137.917969 219.554688 138.398438 222.542969 C 139.992188 232.496094 139.054688 241.589844 135.625 248.992188 Z M 103.265625 232.835938 C 106.128906 232.40625 108.894531 233.179688 111.050781 234.777344 C 113.207031 236.375 114.753906 238.792969 115.183594 241.652344 C 115.609375 244.515625 114.839844 247.28125 113.246094 249.4375 C 111.648438 251.597656 109.230469 253.144531 106.371094 253.574219 C 103.507812 254.003906 100.742188 253.230469 98.585938 251.632812 C 96.425781 250.039062 94.882812 247.617188 94.453125 244.753906 C 94.027344 241.894531 94.796875 239.128906 96.390625 236.972656 C 97.988281 234.8125 100.40625 233.261719 103.265625 232.835938 Z M 161.488281 154.527344 C 163.292969 166.597656 159.992188 178.316406 153.222656 187.472656 C 146.449219 196.628906 136.214844 203.210938 124.140625 205.015625 L 74.730469 212.410156 C 50.574219 216.023438 27.851562 199.214844 24.238281 175.0625 L 23.417969 169.570312 C 21.609375 157.5 24.910156 145.78125 31.679688 136.625 C 38.453125 127.472656 48.695312 120.886719 60.765625 119.078125 L 110.175781 111.6875 C 134.328125 108.074219 157.050781 124.878906 160.664062 149.035156 Z M 142.316406 152.535156 L 142.917969 156.546875 C 144.238281 165.367188 141.824219 173.933594 136.875 180.625 C 131.925781 187.316406 124.441406 192.128906 115.617188 193.449219 L 79.5 198.855469 C 61.839844 201.496094 45.234375 189.210938 42.589844 171.550781 L 41.988281 167.539062 C 40.667969 158.714844 43.082031 150.148438 48.03125 143.460938 C 52.980469 136.769531 60.464844 131.957031 69.292969 130.636719 L 105.410156 125.230469 C 123.066406 122.59375 139.675781 134.878906 142.316406 152.535156 Z M 142.316406 152.535156 " fill-opacity="1" fill-rule="evenodd"/></g></g></g><g clip-path="url(#6209fbb2af)"><g clip-path="url(#7817bf760a)"><g clip-path="url(#4f905346b4)"><path fill="#1ae5be" d="M 111.050781 234.773438 C 113.207031 236.371094 114.753906 238.789062 115.183594 241.648438 C 115.609375 244.511719 114.835938 247.277344 113.246094 249.433594 C 111.648438 251.59375 109.230469 253.140625 106.371094 253.570312 C 103.507812 253.996094 100.742188 253.226562 98.582031 251.628906 C 96.425781 250.035156 94.882812 247.613281 94.453125 244.75 C 94.023438 241.890625 94.796875 239.125 96.390625 236.964844 C 97.984375 234.808594 100.40625 233.257812 103.265625 232.832031 C 106.132812 232.40625 108.898438 233.179688 111.050781 234.773438 Z M 73.429688 155.566406 C 71.488281 154.917969 69.472656 154.792969 67.535156 155.128906 C 65.605469 155.457031 63.765625 156.242188 62.152344 157.425781 C 58.53125 160.070312 56.039062 164.683594 56.386719 170.550781 C 56.421875 171.136719 56.675781 171.632812 57.136719 171.996094 C 57.597656 172.363281 58.136719 172.5 58.71875 172.402344 L 59.144531 172.332031 C 60.152344 172.160156 60.863281 171.269531 60.808594 170.25 C 60.578125 166.046875 62.277344 162.808594 64.753906 161 C 65.820312 160.21875 67.023438 159.703125 68.273438 159.484375 C 69.507812 159.273438 70.796875 159.351562 72.039062 159.765625 C 75.070312 160.773438 77.863281 163.789062 79.210938 169.375 C 79.453125 170.398438 80.445312 171.054688 81.480469 170.878906 L 81.898438 170.8125 C 82.464844 170.71875 82.917969 170.425781 83.238281 169.945312 C 83.554688 169.464844 83.648438 168.9375 83.515625 168.375 C 81.765625 161.066406 77.796875 157.019531 73.429688 155.566406 Z M 120.621094 148.679688 C 118.730469 148.023438 116.738281 147.8125 114.800781 148.058594 C 112.851562 148.308594 110.960938 149.015625 109.296875 150.203125 C 105.542969 152.871094 102.933594 157.902344 103.398438 165.410156 C 103.433594 165.984375 103.679688 166.460938 104.125 166.828125 C 104.570312 167.195312 105.089844 167.34375 105.660156 167.265625 L 106.078125 167.207031 C 107.121094 167.070312 107.875 166.152344 107.808594 165.105469 C 107.460938 159.375 109.25 155.671875 111.851562 153.820312 C 112.917969 153.058594 114.128906 152.605469 115.371094 152.449219 C 116.628906 152.289062 117.933594 152.433594 119.179688 152.863281 C 122.078125 153.871094 124.65625 156.46875 125.664062 160.558594 C 125.90625 161.550781 126.847656 162.191406 127.859375 162.058594 L 128.289062 162.003906 C 128.875 161.925781 129.347656 161.640625 129.679688 161.152344 C 130.011719 160.667969 130.113281 160.121094 129.972656 159.550781 C 128.59375 153.828125 124.859375 150.148438 120.621094 148.679688 Z M 120.621094 148.679688 " fill-opacity="1" fill-rule="nonzero"/></g></g></g><g clip-path="url(#50d3e28e75)"><g clip-path="url(#49dd9a831f)"><path fill="#283389" d="M 92.136719 231.53125 L 115.644531 231.53125 L 115.644531 255.039062 L 92.136719 255.039062 Z M 92.136719 231.53125 " fill-opacity="1" fill-rule="nonzero"/></g></g><g clip-path="url(#c9ea2e8ef5)"><g clip-path="url(#2df2a9031c)"><g clip-path="url(#e7037300fa)"><path fill="#283389" d="M 99.203125 146.078125 L 131.609375 141.816406 L 135.867188 174.21875 L 103.464844 178.480469 Z M 99.203125 146.078125 " fill-opacity="1" fill-rule="nonzero"/></g></g></g><g clip-path="url(#1f13721ee4)"><g clip-path="url(#04d1b49903)"><g clip-path="url(#1f1162b130)"><path fill="#283389" d="M 53.402344 155.1875 L 82.460938 151.367188 L 86.28125 180.425781 L 57.222656 184.246094 Z M 53.402344 155.1875 " fill-opacity="1" fill-rule="nonzero"/></g></g></g><g clip-path="url(#2e3214cc4f)"><g clip-path="url(#163bc801ea)"><g clip-path="url(#dea0f56a8f)"><g clip-path="url(#478a4b9ddd)"><path fill="#1ae5be" d="M 54.503906 169.507812 C 53.941406 170.257812 54.09375 171.324219 54.84375 171.890625 C 55.574219 172.4375 56.613281 172.308594 57.1875 171.597656 L 69.441406 155.839844 L 85.195312 168.09375 C 85.949219 168.660156 87.015625 168.507812 87.574219 167.753906 C 88.125 167.023438 87.996094 165.988281 87.285156 165.410156 L 70.953125 152.710938 C 69.789062 151.800781 68.113281 152.011719 67.207031 153.175781 L 54.503906 169.507812 " fill-opacity="1" fill-rule="nonzero"/></g></g></g></g><g clip-path="url(#d6c8c6d83c)"><g clip-path="url(#556b5f7bce)"><g clip-path="url(#6420f1fb02)"><g clip-path="url(#27e3c80c5f)"><path fill="#1ae5be" d="M 98.78125 163.960938 C 98.226562 164.699219 98.375 165.75 99.117188 166.304688 C 99.835938 166.84375 100.859375 166.71875 101.421875 166.015625 L 113.476562 150.515625 L 128.976562 162.570312 C 129.714844 163.125 130.765625 162.976562 131.316406 162.238281 C 131.855469 161.519531 131.730469 160.5 131.03125 159.929688 L 114.964844 147.433594 C 113.816406 146.542969 112.167969 146.75 111.277344 147.894531 L 98.78125 163.960938 " fill-opacity="1" fill-rule="nonzero"/></g></g></g></g><g clip-path="url(#9587a04d02)"><g clip-path="url(#7862b35e4a)"><path stroke-linecap="butt" transform="matrix(0.911312, 0, 0, 0.911312, 172.628139, 166.676048)" fill="none" stroke-linejoin="miter" d="M 47.116977 -0.00029299 L 170.912562 -0.00029299 C 196.935311 -0.00029299 218.032983 21.093093 218.032983 47.115841 C 218.032983 73.13859 196.935311 94.231976 170.912562 94.231976 L 47.116977 94.231976 C 21.094228 94.231976 0.000842177 73.13859 0.000842177 47.115841 C 0.000842177 21.093093 21.094228 -0.00029299 47.116977 -0.00029299 Z M 47.116977 -0.00029299 " stroke="#283389" stroke-width="14.813805" stroke-opacity="1" stroke-miterlimit="4"/></g></g><g clip-path="url(#9700a06b2d)"><g clip-path="url(#5e51b30e44)"><path fill="#283389" d="M 187.003906 180.3125 L 274.449219 180.3125 L 274.449219 238.917969 L 187.003906 238.917969 Z M 187.003906 180.3125 " fill-opacity="1" fill-rule="nonzero"/></g></g><g fill="#1ae5be" fill-opacity="1"><g transform="translate(201.552929, 225.684078)"><g><path d="M 0.25 0 L 13.6875 -34.578125 L 23.5625 -34.578125 L 37 0 L 26.390625 0 L 24.5 -4.890625 L 12.703125 -4.890625 L 10.8125 0 Z M 14.765625 -12.203125 L 22.484375 -12.203125 L 18.625 -22.921875 Z M 14.765625 -12.203125 "/></g></g></g><g fill="#1ae5be" fill-opacity="1"><g transform="translate(242.551974, 225.684078)"><g><path d="M 3.65625 0 L 3.65625 -34.578125 L 13.640625 -34.578125 L 13.640625 0 Z M 3.65625 0 "/></g></g></g><g fill="#283389" fill-opacity="1"><g transform="translate(273.864083, 227.620714)"><g><path d="M 3.90625 0 L 3.90625 -36.984375 L 20.765625 -36.984375 C 23.765625 -36.984375 26.347656 -36.445312 28.515625 -35.375 C 30.679688 -34.300781 32.351562 -32.773438 33.53125 -30.796875 C 34.707031 -28.828125 35.296875 -26.472656 35.296875 -23.734375 C 35.296875 -21.160156 34.765625 -18.910156 33.703125 -16.984375 C 32.648438 -15.066406 31.140625 -13.5625 29.171875 -12.46875 L 35.984375 0 L 23.890625 0 L 18.59375 -10.515625 L 14.578125 -10.515625 L 14.578125 0 Z M 14.375 -19.03125 L 19.34375 -19.03125 C 21.03125 -19.03125 22.320312 -19.429688 23.21875 -20.234375 C 24.125 -21.046875 24.578125 -22.191406 24.578125 -23.671875 C 24.578125 -25.148438 24.125 -26.285156 23.21875 -27.078125 C 22.320312 -27.867188 21.03125 -28.265625 19.34375 -28.265625 L 14.375 -28.265625 Z M 14.375 -19.03125 "/></g></g></g><g fill="#283389" fill-opacity="1"><g transform="translate(311.914015, 227.620714)"><g><path d="M 0.265625 0 L 14.640625 -36.984375 L 25.203125 -36.984375 L 39.578125 0 L 28.21875 0 L 26.203125 -5.234375 L 13.578125 -5.234375 L 11.578125 0 Z M 15.796875 -13.046875 L 24.046875 -13.046875 L 19.921875 -24.515625 Z M 15.796875 -13.046875 "/></g></g></g></svg>